<svg width="178" height="26" viewBox="0 0 178 26" fill="none" xmlns="http://www.w3.org/2000/svg">
<g clip-path="url(#clip0_918_301)">
<path fill-rule="evenodd" clip-rule="evenodd" d="M44.4629 5.58795H40.0991C39.8634 5.58795 39.6758 5.77635 39.6758 6.0033V7.4249C39.6758 7.4249 39.6758 7.46344 39.6671 7.48057C39.6365 7.57905 39.5318 7.639 39.427 7.60903L39.3703 7.58333C39.3703 7.58333 39.3441 7.55336 39.331 7.53623C37.7252 5.84058 35.4342 4.92424 33.0777 5.03557C30.4245 5.01416 27.8978 6.12319 26.1392 8.07148C22.2903 12.3149 22.2903 18.7121 26.1392 22.9555C27.8978 24.9038 30.4289 26.0128 33.0821 25.9914C35.4385 26.1028 37.7295 25.1907 39.3354 23.4908C39.3485 23.4694 39.3616 23.4522 39.3834 23.4351C39.4314 23.4051 39.4925 23.3923 39.5492 23.4094C39.6278 23.4308 39.6801 23.5036 39.6801 23.5807V25.0152C39.6801 25.2464 39.8678 25.4305 40.1034 25.4305H44.4716C44.7029 25.4348 44.8905 25.2549 44.8949 25.028C44.8949 25.0237 44.8949 25.0194 44.8949 25.0109V6.01186C44.8993 5.78063 44.716 5.59223 44.4803 5.58795C44.476 5.58795 44.4672 5.58795 44.4629 5.58795ZM34.0726 21.0072C30.9787 21.0072 28.4695 18.5451 28.4695 15.5092C28.4695 12.4733 30.9787 10.0112 34.0726 10.0112C37.1666 10.0112 39.6758 12.4733 39.6758 15.5092C39.6758 18.5451 37.1666 21.0072 34.0726 21.0072Z" fill="#151414"/>
<path fill-rule="evenodd" clip-rule="evenodd" d="M68.6515 0.064209H64.2877C64.0564 0.064209 63.8644 0.252615 63.8644 0.479558V7.4206C63.8644 7.4206 63.8644 7.45914 63.8557 7.47626C63.8251 7.57903 63.716 7.6347 63.6157 7.60472L63.5589 7.57903C63.5589 7.57903 63.5328 7.54906 63.5197 7.53193C61.9138 5.83628 59.6228 4.91994 57.2663 5.03127C54.6131 5.00986 52.0821 6.11889 50.3235 8.06717C46.4746 12.3106 46.4746 18.7078 50.3235 22.9512C52.0821 24.8995 54.6131 26.0043 57.2663 25.9871C59.6228 26.0985 61.9138 25.1864 63.5197 23.4865C63.5328 23.4651 63.5458 23.4479 63.5677 23.4308C63.6157 23.4008 63.6768 23.388 63.7335 23.4051C63.812 23.4265 63.8644 23.4993 63.8644 23.5764V25.0108C63.8644 25.2421 64.0521 25.4262 64.2877 25.4262H68.6559C68.8872 25.4305 69.0748 25.2506 69.0792 25.0237C69.0792 25.0194 69.0792 25.0151 69.0792 25.0066V0.48384C69.0792 0.252615 68.8915 0.0684909 68.6559 0.0684909H68.6471L68.6515 0.064209ZM58.2613 21.0072C55.1673 21.0072 52.6581 18.5451 52.6581 15.5092C52.6581 12.4733 55.1673 10.0112 58.2613 10.0112C61.3552 10.0112 63.8644 12.4733 63.8644 15.5092C63.86 18.5408 61.3552 20.9987 58.2613 20.9987V21.0072Z" fill="#151414"/>
<path d="M103.536 26C108 26 110.985 24.2316 111.753 21.1529C112.381 18.9519 111.552 16.6011 109.671 15.2523C108.201 14.366 106.617 13.6766 104.958 13.2098C103.003 12.6061 101.712 12.2079 101.712 11.0389C101.712 10.0112 102.75 9.4717 103.78 9.4717C104.26 9.46314 104.732 9.60016 105.133 9.86136C105.39 10.0326 105.582 10.2767 105.687 10.5593C105.761 10.7606 105.953 10.8976 106.176 10.8976H110.946C111.19 10.8976 111.395 10.7049 111.395 10.4651C111.395 10.4565 111.395 10.448 111.395 10.4351C110.78 3.3742 96.0301 2.88606 96.0301 11.5613C96.0214 11.7026 95.8512 14.7171 99.7568 16.2629C99.783 16.2757 102.593 17.3719 103.785 17.8087C104.758 18.0356 105.613 18.6094 106.189 19.4101C106.342 19.7484 106.342 20.1338 106.189 20.472C105.831 21.3455 104.313 21.7095 103.174 21.4954C102.375 21.4141 101.712 20.8617 101.494 20.1081C101.433 19.9111 101.245 19.7784 101.035 19.7826H96.209C95.9516 19.7826 95.7377 19.9839 95.7377 20.2365C95.7377 20.2537 95.7377 20.2751 95.7377 20.2922C95.9865 22.1163 97.5793 26 103.549 26H103.536Z" fill="#151414"/>
<path d="M123.692 21.2427C123.692 21.0072 123.492 20.8145 123.252 20.8188C123.252 20.8188 123.247 20.8188 123.243 20.8188C122.68 20.8317 122.178 20.8274 121.75 20.8017C121.192 20.8017 120.646 20.6133 120.214 20.2664C119.826 19.8597 119.634 19.3116 119.682 18.7592V10.6963C119.682 10.5892 119.769 10.5079 119.878 10.5036H123.273C123.505 10.5036 123.692 10.3195 123.692 10.0968V5.99471C123.692 5.76777 123.505 5.58364 123.273 5.58364H119.878C119.769 5.58364 119.682 5.498 119.682 5.39095V0.488122C119.682 0.252615 119.486 0.064209 119.25 0.064209H114.899C114.659 0.064209 114.463 0.252615 114.463 0.488122V18.7635C114.463 21.4868 115.196 23.3794 116.667 24.4371C117.998 25.3962 120.21 25.7473 123.278 25.5118C123.505 25.4947 123.684 25.3063 123.688 25.0836L123.697 21.2427H123.692Z" fill="#151414"/>
<path fill-rule="evenodd" clip-rule="evenodd" d="M92.7616 5.58795H88.3977C88.1665 5.58795 87.9745 5.77635 87.9745 6.0033V7.4249C87.9745 7.4249 87.9745 7.46344 87.9657 7.48057C87.9352 7.58333 87.8261 7.639 87.7257 7.60903L87.669 7.58333C87.669 7.58333 87.6428 7.55336 87.6297 7.53623C86.0238 5.84058 83.7328 4.92424 81.3764 5.03557C78.7232 5.01416 76.1922 6.12319 74.4335 8.07148C70.5847 12.3149 70.5847 18.7121 74.4335 22.9555C76.1922 24.9038 78.7232 26.0086 81.3764 25.9914C83.7328 26.1028 86.0238 25.1907 87.6297 23.4908C87.6428 23.4694 87.6603 23.4522 87.6777 23.4351C87.7257 23.4051 87.7868 23.3923 87.8435 23.4094C87.9221 23.4308 87.9745 23.5036 87.9745 23.5807V25.0152C87.9745 25.2464 88.1621 25.4305 88.3977 25.4305H92.7659C92.9972 25.4305 93.1848 25.2549 93.1892 25.028V6.00758C93.1892 5.77635 93.0059 5.58795 92.7747 5.58795C92.7747 5.58795 92.7659 5.58795 92.7616 5.58795ZM82.3713 21.0072C79.2774 21.0072 76.7682 18.5451 76.7682 15.5092C76.7682 12.4733 79.2774 10.0112 82.3713 10.0112C85.4653 10.0112 87.9745 12.4733 87.9745 15.5092C87.9745 18.5451 85.4653 21.003 82.3713 21.0072Z" fill="#151414"/>
<path fill-rule="evenodd" clip-rule="evenodd" d="M160.767 5.5794H156.403C156.168 5.5794 155.98 5.76781 155.98 5.99475V7.41636C155.98 7.41636 155.98 7.4549 155.971 7.47202C155.941 7.57479 155.836 7.63046 155.731 7.60048L155.675 7.57479C155.675 7.57479 155.649 7.54482 155.635 7.52769C154.03 5.83204 151.739 4.9157 149.382 5.02703C146.729 5.00562 144.202 6.11465 142.444 8.06293C138.595 12.3063 138.595 18.7036 142.444 22.947C144.202 24.8953 146.733 26 149.382 25.9829C151.739 26.0942 154.03 25.1822 155.635 23.4822C155.649 23.4608 155.666 23.4437 155.683 23.4266C155.731 23.3966 155.793 23.3837 155.849 23.4009C155.928 23.4223 155.98 23.4951 155.98 23.5722V25.0066C155.98 25.2378 156.168 25.422 156.403 25.422H160.772C161.003 25.422 161.191 25.2464 161.195 25.0195V5.99903C161.195 5.76781 161.012 5.5794 160.78 5.5794C160.78 5.5794 160.772 5.5794 160.767 5.5794ZM150.377 20.9987C147.283 20.9987 144.778 18.5366 144.778 15.5007C144.778 12.4648 147.287 10.0069 150.381 10.0069C153.475 10.0069 155.98 12.4691 155.98 15.505C155.98 18.5409 153.471 21.003 150.377 21.003V20.9987Z" fill="#151414"/>
<path d="M137.993 6.08463C137.993 5.80202 137.761 5.57507 137.473 5.57507H133.157C129.885 5.57507 127.231 8.1785 127.231 11.3857V24.8524C127.231 25.135 127.463 25.362 127.751 25.362H131.914C132.202 25.362 132.433 25.135 132.433 24.8524V11.9852C132.433 11.193 133.083 10.5507 133.891 10.5507H137.469C137.757 10.5507 137.988 10.3238 137.988 10.0411V6.08463H137.993Z" fill="#151414"/>
<path d="M18.5157 18.9518C15.2253 21.8464 10.1677 21.5767 7.21774 18.3524C5.00529 15.9331 4.54272 12.4262 6.04824 9.53156C7.35738 6.84678 10.1153 5.13828 13.1482 5.134C15.1119 5.134 17.0101 5.83624 18.4851 7.11226C18.6858 7.2921 18.9913 7.28782 19.1877 7.10369L22.094 4.25191C22.2947 4.05494 22.2991 3.73808 22.0983 3.54111C22.094 3.53683 22.0896 3.53255 22.0853 3.52826C19.3797 1.06614 15.7446 -0.158494 12.0747 0.136961C4.81328 0.749279 -0.571667 7.01805 0.0479942 14.1432C0.628382 20.8273 6.31443 25.9657 13.1525 25.9914C16.4734 25.9957 19.6764 24.7667 22.1114 22.5487C22.3165 22.356 22.3253 22.0391 22.1289 21.8379C22.1289 21.8336 22.1202 21.8293 22.1158 21.825L19.4102 19.1702C19.0088 18.7763 18.7164 18.7806 18.5157 18.9518Z" fill="#151414"/>
<path d="M172.401 10.996C175.496 10.996 178.004 8.5345 178.004 5.49802C178.004 2.46155 175.496 0 172.401 0C169.307 0 166.798 2.46155 166.798 5.49802C166.798 8.5345 169.307 10.996 172.401 10.996Z" fill="#EB7B29"/>
</g>
<defs>
<clipPath id="clip0_918_301">
<rect width="178" height="26" fill="white"/>
</clipPath>
</defs>
</svg>
